<svg width="1068" height="785" viewBox="0 0 1068 785" fill="none" xmlns="http://www.w3.org/2000/svg">
<g id="hero2 1">
<g id="mainn">
<path id="Vector" d="M0 595.743C11.7918 609.863 24.5459 623.133 38.1691 635.455L1029.83 636.827C1043.45 624.504 1056.21 611.235 1068 597.114L0 595.743Z" fill="#C0BFCA"/>
<path id="Vector_2" d="M672.478 468.581V586.146C672.479 587.645 673.069 589.081 674.117 590.141C675.165 591.2 676.587 591.796 678.069 591.797H850.46C851.943 591.796 853.364 591.2 854.412 590.141C855.461 589.081 856.05 587.645 856.051 586.146V468.581C856.048 467.084 855.457 465.65 854.409 464.592C853.361 463.534 851.941 462.939 850.46 462.937H678.069C676.588 462.939 675.168 463.534 674.12 464.592C673.072 465.65 672.482 467.084 672.478 468.581V468.581Z" fill="#3F3D56"/>
<path id="Vector_3" d="M676.522 470.044V584.696C676.524 585.497 676.839 586.264 677.399 586.83C677.959 587.396 678.718 587.715 679.51 587.716H849.025C849.817 587.715 850.577 587.396 851.137 586.83C851.697 586.264 852.012 585.497 852.013 584.696V470.044C852.013 469.242 851.699 468.474 851.138 467.906C850.578 467.339 849.818 467.02 849.025 467.018H679.51C678.717 467.02 677.957 467.339 677.397 467.906C676.837 468.474 676.522 469.242 676.522 470.044V470.044Z" fill="#FF4D5A"/>
<path id="Vector_4" d="M668.873 609.075C669.188 609.475 669.59 609.798 670.047 610.018C670.504 610.239 671.004 610.353 671.511 610.35H856.101C856.606 610.35 857.104 610.235 857.56 610.016C858.015 609.796 858.417 609.476 858.735 609.08C859.053 608.684 859.279 608.221 859.398 607.725C859.517 607.229 859.525 606.713 859.421 606.213L856.556 592.459C856.437 591.898 856.181 591.376 855.812 590.94C855.443 590.504 854.971 590.169 854.441 589.965C854.057 589.813 853.648 589.735 853.236 589.735H674.365C673.952 589.735 673.543 589.813 673.159 589.965C672.629 590.169 672.158 590.504 671.788 590.94C671.419 591.376 671.163 591.898 671.044 592.459L668.179 606.213C668.077 606.713 668.086 607.228 668.206 607.723C668.326 608.218 668.554 608.68 668.873 609.075V609.075Z" fill="#2F2E41"/>
<path id="Vector_5" d="M846.902 595.66H851.262C851.628 595.66 851.925 595.36 851.925 594.99V592.882C851.925 592.512 851.628 592.212 851.262 592.212H846.902C846.536 592.212 846.239 592.512 846.239 592.882V594.99C846.239 595.36 846.536 595.66 846.902 595.66Z" fill="#3F3D56"/>
<path id="Vector_6" d="M835.531 595.66H839.891C840.257 595.66 840.554 595.36 840.554 594.99V592.882C840.554 592.512 840.257 592.212 839.891 592.212H835.531C835.165 592.212 834.869 592.512 834.869 592.882V594.99C834.869 595.36 835.165 595.66 835.531 595.66Z" fill="#3F3D56"/>
<path id="Vector_7" d="M824.161 595.66H828.521C828.887 595.66 829.183 595.36 829.183 594.99V592.882C829.183 592.512 828.887 592.212 828.521 592.212H824.161C823.795 592.212 823.498 592.512 823.498 592.882V594.99C823.498 595.36 823.795 595.66 824.161 595.66Z" fill="#3F3D56"/>
<path id="Vector_8" d="M812.79 595.66H817.15C817.516 595.66 817.813 595.36 817.813 594.99V592.882C817.813 592.512 817.516 592.212 817.15 592.212H812.79C812.424 592.212 812.127 592.512 812.127 592.882V594.99C812.127 595.36 812.424 595.66 812.79 595.66Z" fill="#3F3D56"/>
<path id="Vector_9" d="M801.42 595.66H805.78C806.146 595.66 806.442 595.36 806.442 594.99V592.882C806.442 592.512 806.146 592.212 805.78 592.212H801.42C801.054 592.212 800.757 592.512 800.757 592.882V594.99C800.757 595.36 801.054 595.66 801.42 595.66Z" fill="#3F3D56"/>
<path id="Vector_10" d="M790.049 595.66H794.409C794.775 595.66 795.072 595.36 795.072 594.99V592.882C795.072 592.512 794.775 592.212 794.409 592.212H790.049C789.683 592.212 789.386 592.512 789.386 592.882V594.99C789.386 595.36 789.683 595.66 790.049 595.66Z" fill="#3F3D56"/>
<path id="Vector_11" d="M778.678 595.66H783.038C783.404 595.66 783.701 595.36 783.701 594.99V592.882C783.701 592.512 783.404 592.212 783.038 592.212H778.678C778.312 592.212 778.016 592.512 778.016 592.882V594.99C778.016 595.36 778.312 595.66 778.678 595.66Z" fill="#3F3D56"/>
<path id="Vector_12" d="M767.308 595.66H771.668C772.034 595.66 772.33 595.36 772.33 594.99V592.882C772.33 592.512 772.034 592.212 771.668 592.212H767.308C766.942 592.212 766.645 592.512 766.645 592.882V594.99C766.645 595.36 766.942 595.66 767.308 595.66Z" fill="#3F3D56"/>
<path id="Vector_13" d="M755.937 595.66H760.297C760.663 595.66 760.96 595.36 760.96 594.99V592.882C760.96 592.512 760.663 592.212 760.297 592.212H755.937C755.571 592.212 755.274 592.512 755.274 592.882V594.99C755.274 595.36 755.571 595.66 755.937 595.66Z" fill="#3F3D56"/>
<path id="Vector_14" d="M744.566 595.66H748.926C749.292 595.66 749.589 595.36 749.589 594.99V592.882C749.589 592.512 749.292 592.212 748.926 592.212H744.566C744.2 592.212 743.904 592.512 743.904 592.882V594.99C743.904 595.36 744.2 595.66 744.566 595.66Z" fill="#3F3D56"/>
<path id="Vector_15" d="M733.196 595.66H737.556C737.922 595.66 738.219 595.36 738.219 594.99V592.882C738.219 592.512 737.922 592.212 737.556 592.212H733.196C732.83 592.212 732.533 592.512 732.533 592.882V594.99C732.533 595.36 732.83 595.66 733.196 595.66Z" fill="#3F3D56"/>
<path id="Vector_16" d="M721.825 595.66H726.185C726.551 595.66 726.848 595.36 726.848 594.99V592.882C726.848 592.512 726.551 592.212 726.185 592.212H721.825C721.459 592.212 721.163 592.512 721.163 592.882V594.99C721.163 595.36 721.459 595.66 721.825 595.66Z" fill="#3F3D56"/>
<path id="Vector_17" d="M710.455 595.66H714.815C715.181 595.66 715.477 595.36 715.477 594.99V592.882C715.477 592.512 715.181 592.212 714.815 592.212H710.455C710.089 592.212 709.792 592.512 709.792 592.882V594.99C709.792 595.36 710.089 595.66 710.455 595.66Z" fill="#3F3D56"/>
<path id="Vector_18" d="M699.084 595.66H703.444C703.81 595.66 704.107 595.36 704.107 594.99V592.882C704.107 592.512 703.81 592.212 703.444 592.212H699.084C698.718 592.212 698.421 592.512 698.421 592.882V594.99C698.421 595.36 698.718 595.66 699.084 595.66Z" fill="#3F3D56"/>
<path id="Vector_19" d="M687.713 595.66H692.073C692.439 595.66 692.736 595.36 692.736 594.99V592.882C692.736 592.512 692.439 592.212 692.073 592.212H687.713C687.347 592.212 687.051 592.512 687.051 592.882V594.99C687.051 595.36 687.347 595.66 687.713 595.66Z" fill="#3F3D56"/>
<path id="Vector_20" d="M676.343 595.66H680.703C681.069 595.66 681.365 595.36 681.365 594.99V592.882C681.365 592.512 681.069 592.212 680.703 592.212H676.343C675.977 592.212 675.68 592.512 675.68 592.882V594.99C675.68 595.36 675.977 595.66 676.343 595.66Z" fill="#3F3D56"/>
<path id="Vector_21" d="M847.036 601.405H851.396C851.762 601.405 852.059 601.105 852.059 600.736V598.628C852.059 598.258 851.762 597.958 851.396 597.958H847.036C846.67 597.958 846.374 598.258 846.374 598.628V600.736C846.374 601.105 846.67 601.405 847.036 601.405Z" fill="#3F3D56"/>
<path id="Vector_22" d="M835.666 601.405H840.026C840.392 601.405 840.688 601.105 840.688 600.736V598.628C840.688 598.258 840.392 597.958 840.026 597.958H835.666C835.3 597.958 835.003 598.258 835.003 598.628V600.736C835.003 601.105 835.3 601.405 835.666 601.405Z" fill="#3F3D56"/>
<path id="Vector_23" d="M824.295 601.405H828.655C829.021 601.405 829.318 601.105 829.318 600.736V598.628C829.318 598.258 829.021 597.958 828.655 597.958H824.295C823.929 597.958 823.633 598.258 823.633 598.628V600.736C823.633 601.105 823.929 601.405 824.295 601.405Z" fill="#3F3D56"/>
<path id="Vector_24" d="M812.924 601.405H817.284C817.65 601.405 817.947 601.105 817.947 600.736V598.628C817.947 598.258 817.65 597.958 817.284 597.958H812.924C812.558 597.958 812.262 598.258 812.262 598.628V600.736C812.262 601.105 812.558 601.405 812.924 601.405Z" fill="#3F3D56"/>
<path id="Vector_25" d="M801.554 601.405H805.914C806.28 601.405 806.576 601.105 806.576 600.736V598.628C806.576 598.258 806.28 597.958 805.914 597.958H801.554C801.188 597.958 800.891 598.258 800.891 598.628V600.736C800.891 601.105 801.188 601.405 801.554 601.405Z" fill="#3F3D56"/>
<path id="Vector_26" d="M790.183 601.405H794.543C794.909 601.405 795.206 601.105 795.206 600.736V598.628C795.206 598.258 794.909 597.958 794.543 597.958H790.183C789.817 597.958 789.521 598.258 789.521 598.628V600.736C789.521 601.105 789.817 601.405 790.183 601.405Z" fill="#3F3D56"/>
<path id="Vector_27" d="M778.813 601.405H783.173C783.539 601.405 783.835 601.105 783.835 600.736V598.628C783.835 598.258 783.539 597.958 783.173 597.958H778.813C778.447 597.958 778.15 598.258 778.15 598.628V600.736C778.15 601.105 778.447 601.405 778.813 601.405Z" fill="#3F3D56"/>
<path id="Vector_28" d="M767.442 601.405H771.802C772.168 601.405 772.465 601.105 772.465 600.736V598.628C772.465 598.258 772.168 597.958 771.802 597.958H767.442C767.076 597.958 766.779 598.258 766.779 598.628V600.736C766.779 601.105 767.076 601.405 767.442 601.405Z" fill="#3F3D56"/>
<path id="Vector_29" d="M756.071 601.405H760.431C760.797 601.405 761.094 601.105 761.094 600.736V598.628C761.094 598.258 760.797 597.958 760.431 597.958H756.071C755.705 597.958 755.409 598.258 755.409 598.628V600.736C755.409 601.105 755.705 601.405 756.071 601.405Z" fill="#3F3D56"/>
<path id="Vector_30" d="M744.701 601.405H749.061C749.427 601.405 749.724 601.105 749.724 600.736V598.628C749.724 598.258 749.427 597.958 749.061 597.958H744.701C744.335 597.958 744.038 598.258 744.038 598.628V600.736C744.038 601.105 744.335 601.405 744.701 601.405Z" fill="#3F3D56"/>
<path id="Vector_31" d="M733.33 601.405H737.69C738.056 601.405 738.353 601.105 738.353 600.736V598.628C738.353 598.258 738.056 597.958 737.69 597.958H733.33C732.964 597.958 732.668 598.258 732.668 598.628V600.736C732.668 601.105 732.964 601.405 733.33 601.405Z" fill="#3F3D56"/>
<path id="Vector_32" d="M721.96 601.405H726.32C726.686 601.405 726.982 601.105 726.982 600.736V598.628C726.982 598.258 726.686 597.958 726.32 597.958H721.96C721.594 597.958 721.297 598.258 721.297 598.628V600.736C721.297 601.105 721.594 601.405 721.96 601.405Z" fill="#3F3D56"/>
<path id="Vector_33" d="M710.589 601.405H714.949C715.315 601.405 715.612 601.105 715.612 600.736V598.628C715.612 598.258 715.315 597.958 714.949 597.958H710.589C710.223 597.958 709.927 598.258 709.927 598.628V600.736C709.927 601.105 710.223 601.405 710.589 601.405Z" fill="#3F3D56"/>
<path id="Vector_34" d="M699.219 601.405H703.579C703.944 601.405 704.241 601.105 704.241 600.736V598.628C704.241 598.258 703.944 597.958 703.579 597.958H699.219C698.853 597.958 698.556 598.258 698.556 598.628V600.736C698.556 601.105 698.853 601.405 699.219 601.405Z" fill="#3F3D56"/>
<path id="Vector_35" d="M687.848 601.405H692.208C692.574 601.405 692.871 601.105 692.871 600.736V598.628C692.871 598.258 692.574 597.958 692.208 597.958H687.848C687.482 597.958 687.185 598.258 687.185 598.628V600.736C687.185 601.105 687.482 601.405 687.848 601.405Z" fill="#3F3D56"/>
<path id="Vector_36" d="M676.477 601.405H680.837C681.203 601.405 681.5 601.105 681.5 600.736V598.628C681.5 598.258 681.203 597.958 680.837 597.958H676.477C676.111 597.958 675.815 598.258 675.815 598.628V600.736C675.815 601.105 676.111 601.405 676.477 601.405Z" fill="#3F3D56"/>
<path id="Vector_37" d="M752.66 608.3H796.817C797.183 608.3 797.48 608 797.48 607.63V605.522C797.48 605.153 797.183 604.853 796.817 604.853H752.66C752.294 604.853 751.998 605.153 751.998 605.522V607.63C751.998 608 752.294 608.3 752.66 608.3Z" fill="#3F3D56"/>
<path id="Vector_38" d="M717.649 501.767H713.789C712.619 501.767 711.67 502.726 711.67 503.909C711.67 505.091 712.619 506.05 713.789 506.05H717.649C718.82 506.05 719.768 505.091 719.768 503.909C719.768 502.726 718.82 501.767 717.649 501.767Z" fill="white"/>
<path id="Vector_39" d="M774.303 501.767H770.443C769.273 501.767 768.324 502.726 768.324 503.909C768.324 505.091 769.273 506.05 770.443 506.05H774.303C775.473 506.05 776.422 505.091 776.422 503.909C776.422 502.726 775.473 501.767 774.303 501.767Z" fill="white"/>
<path id="Vector_40" d="M749.787 501.41H725.797C724.627 501.41 723.678 502.369 723.678 503.552C723.678 504.734 724.627 505.693 725.797 505.693H749.787C750.957 505.693 751.906 504.734 751.906 503.552C751.906 502.369 750.957 501.41 749.787 501.41Z" fill="white"/>
<path id="Vector_41" d="M729.421 511.434H725.562C724.391 511.434 723.443 512.392 723.443 513.575C723.443 514.758 724.391 515.716 725.562 515.716H729.421C730.592 515.716 731.54 514.758 731.54 513.575C731.54 512.392 730.592 511.434 729.421 511.434Z" fill="white"/>
<path id="Vector_42" d="M773.567 511.434H769.707C768.537 511.434 767.588 512.392 767.588 513.575C767.588 514.758 768.537 515.716 769.707 515.716H773.567C774.737 515.716 775.686 514.758 775.686 513.575C775.686 512.392 774.737 511.434 773.567 511.434Z" fill="white"/>
<path id="Vector_43" d="M786.075 511.434H782.215C781.045 511.434 780.096 512.392 780.096 513.575C780.096 514.758 781.045 515.716 782.215 515.716H786.075C787.245 515.716 788.194 514.758 788.194 513.575C788.194 512.392 787.245 511.434 786.075 511.434Z" fill="white"/>
<path id="Vector_44" d="M761.559 511.077H737.569C736.399 511.077 735.45 512.035 735.45 513.218C735.45 514.401 736.399 515.359 737.569 515.359H761.559C762.73 515.359 763.678 514.401 763.678 513.218C763.678 512.035 762.73 511.077 761.559 511.077Z" fill="white"/>
<path id="Vector_45" d="M741.194 521.1H737.334C736.164 521.1 735.215 522.059 735.215 523.241C735.215 524.424 736.164 525.383 737.334 525.383H741.194C742.364 525.383 743.313 524.424 743.313 523.241C743.313 522.059 742.364 521.1 741.194 521.1Z" fill="white"/>
<path id="Vector_46" d="M785.339 521.1H781.479C780.309 521.1 779.36 522.059 779.36 523.241C779.36 524.424 780.309 525.383 781.479 525.383H785.339C786.51 525.383 787.458 524.424 787.458 523.241C787.458 522.059 786.51 521.1 785.339 521.1Z" fill="white"/>
<path id="Vector_47" d="M773.331 520.743H749.341C748.171 520.743 747.222 521.702 747.222 522.884C747.222 524.067 748.171 525.026 749.341 525.026H773.331C774.502 525.026 775.45 524.067 775.45 522.884C775.45 521.702 774.502 520.743 773.331 520.743Z" fill="white"/>
<path id="Vector_48" d="M750.023 559.537H746.163C744.993 559.537 744.044 560.496 744.044 561.679C744.044 562.861 744.993 563.82 746.163 563.82H750.023C751.193 563.82 752.142 562.861 752.142 561.679C752.142 560.496 751.193 559.537 750.023 559.537Z" fill="white"/>
<path id="Vector_49" d="M762.531 559.537H758.671C757.5 559.537 756.552 560.496 756.552 561.679C756.552 562.861 757.5 563.82 758.671 563.82H762.531C763.701 563.82 764.65 562.861 764.65 561.679C764.65 560.496 763.701 559.537 762.531 559.537Z" fill="white"/>
<path id="Vector_50" d="M738.015 559.894H714.025C712.855 559.894 711.906 560.853 711.906 562.036C711.906 563.218 712.855 564.177 714.025 564.177H738.015C739.185 564.177 740.134 563.218 740.134 562.036C740.134 560.853 739.185 559.894 738.015 559.894Z" fill="white"/>
<path id="Vector_51" d="M717.649 549.871H713.789C712.619 549.871 711.67 550.83 711.67 552.012C711.67 553.195 712.619 554.154 713.789 554.154H717.649C718.82 554.154 719.768 553.195 719.768 552.012C719.768 550.83 718.82 549.871 717.649 549.871Z" fill="white"/>
<path id="Vector_52" d="M761.795 549.871H757.935C756.765 549.871 755.816 550.83 755.816 552.012C755.816 553.195 756.765 554.154 757.935 554.154H761.795C762.965 554.154 763.914 553.195 763.914 552.012C763.914 550.83 762.965 549.871 761.795 549.871Z" fill="white"/>
<path id="Vector_53" d="M774.303 549.871H770.443C769.273 549.871 768.324 550.83 768.324 552.012C768.324 553.195 769.273 554.154 770.443 554.154H774.303C775.473 554.154 776.422 553.195 776.422 552.012C776.422 550.83 775.473 549.871 774.303 549.871Z" fill="white"/>
<path id="Vector_54" d="M729.421 540.205H725.562C724.391 540.205 723.443 541.163 723.443 542.346C723.443 543.529 724.391 544.487 725.562 544.487H729.421C730.592 544.487 731.54 543.529 731.54 542.346C731.54 541.163 730.592 540.205 729.421 540.205Z" fill="white"/>
<path id="Vector_55" d="M773.567 540.205H769.707C768.537 540.205 767.588 541.163 767.588 542.346C767.588 543.529 768.537 544.487 769.707 544.487H773.567C774.737 544.487 775.686 543.529 775.686 542.346C775.686 541.163 774.737 540.205 773.567 540.205Z" fill="white"/>
<path id="Vector_56" d="M786.075 540.205H782.215C781.045 540.205 780.096 541.163 780.096 542.346C780.096 543.529 781.045 544.487 782.215 544.487H786.075C787.245 544.487 788.194 543.529 788.194 542.346C788.194 541.163 787.245 540.205 786.075 540.205Z" fill="white"/>
<path id="Vector_57" d="M761.559 540.562H737.569C736.399 540.562 735.45 541.52 735.45 542.703C735.45 543.886 736.399 544.845 737.569 544.845H761.559C762.73 544.845 763.678 543.886 763.678 542.703C763.678 541.52 762.73 540.562 761.559 540.562Z" fill="white"/>
<path id="Vector_58" d="M741.194 530.538H737.334C736.164 530.538 735.215 531.497 735.215 532.68C735.215 533.862 736.164 534.821 737.334 534.821H741.194C742.364 534.821 743.313 533.862 743.313 532.68C743.313 531.497 742.364 530.538 741.194 530.538Z" fill="white"/>
<path id="Vector_59" d="M785.339 530.538H781.479C780.309 530.538 779.36 531.497 779.36 532.68C779.36 533.862 780.309 534.821 781.479 534.821H785.339C786.51 534.821 787.458 533.862 787.458 532.68C787.458 531.497 786.51 530.538 785.339 530.538Z" fill="white"/>
<g id="monitor-min">
<path id="Vector_60" d="M762.531 492.101H758.671C757.5 492.101 756.552 493.06 756.552 494.242C756.552 495.425 757.5 496.384 758.671 496.384H762.531C763.701 496.384 764.65 495.425 764.65 494.242C764.65 493.06 763.701 492.101 762.531 492.101Z" fill="white"/>
<path id="Vector_61" d="M738.015 491.744H714.025C712.855 491.744 711.906 492.703 711.906 493.885C711.906 495.068 712.855 496.027 714.025 496.027H738.015C739.185 496.027 740.134 495.068 740.134 493.885C740.134 492.703 739.185 491.744 738.015 491.744Z" fill="white"/>
<path id="Vector_62" d="M761.795 501.767H757.935C756.765 501.767 755.816 502.726 755.816 503.909C755.816 505.091 756.765 506.05 757.935 506.05H761.795C762.965 506.05 763.914 505.091 763.914 503.909C763.914 502.726 762.965 501.767 761.795 501.767Z" fill="white"/>
<path id="Vector_63" d="M808.648 501.41H784.658C783.488 501.41 782.539 502.369 782.539 503.552C782.539 504.734 783.488 505.693 784.658 505.693H808.648C809.818 505.693 810.767 504.734 810.767 503.552C810.767 502.369 809.818 501.41 808.648 501.41Z" fill="white"/>
<path id="Vector_64" d="M820.42 511.076H796.43C795.26 511.076 794.311 512.035 794.311 513.218C794.311 514.401 795.26 515.359 796.43 515.359H820.42C821.59 515.359 822.539 514.401 822.539 513.218C822.539 512.035 821.59 511.076 820.42 511.076Z" fill="white"/>
<path id="Vector_65" d="M797.847 521.1H793.987C792.817 521.1 791.868 522.059 791.868 523.241C791.868 524.424 792.817 525.383 793.987 525.383H797.847C799.017 525.383 799.966 524.424 799.966 523.241C799.966 522.059 799.017 521.1 797.847 521.1Z" fill="white"/>
<path id="Vector_66" d="M796.876 559.894H772.886C771.715 559.894 770.767 560.853 770.767 562.036C770.767 563.218 771.715 564.177 772.886 564.177H796.876C798.046 564.177 798.995 563.218 798.995 562.036C798.995 560.853 798.046 559.894 796.876 559.894Z" fill="white"/>
<path id="Vector_67" d="M705.877 559.537H702.017C700.847 559.537 699.898 560.496 699.898 561.679C699.898 562.861 700.847 563.82 702.017 563.82H705.877C707.048 563.82 707.996 562.861 707.996 561.679C707.996 560.496 707.048 559.537 705.877 559.537Z" fill="white"/>
<path id="Vector_68" d="M797.847 530.538H793.987C792.817 530.538 791.868 531.497 791.868 532.68C791.868 533.862 792.817 534.821 793.987 534.821H797.847C799.017 534.821 799.966 533.862 799.966 532.68C799.966 531.497 799.017 530.538 797.847 530.538Z" fill="white"/>
</g>
<path id="Vector_69" d="M773.331 530.895H749.341C748.171 530.895 747.222 531.854 747.222 533.037C747.222 534.22 748.171 535.178 749.341 535.178H773.331C774.502 535.178 775.45 534.22 775.45 533.037C775.45 531.854 774.502 530.895 773.331 530.895Z" fill="white"/>
<path id="Vector_70" d="M685.356 672.823L667.236 643.876L724.112 598.056L747.588 571.771C750.638 568.357 754.521 565.811 758.85 564.388C763.179 562.965 767.801 562.715 772.255 563.663C776.709 564.611 780.839 566.724 784.232 569.79C787.626 572.857 790.163 576.77 791.591 581.138C793.707 587.611 793.252 594.661 790.322 600.801C787.392 606.941 782.216 611.691 775.886 614.048L738.764 627.869L685.356 672.823Z" fill="#FFB6B6"/>
<path id="Vector_71" d="M260.193 462.942V603.63H357.719V462.942C357.721 461.931 357.402 460.945 356.808 460.13C356.214 459.315 355.378 458.714 354.421 458.416C353.97 458.265 353.498 458.191 353.023 458.196H264.903C264.285 458.195 263.673 458.317 263.102 458.555C262.531 458.793 262.012 459.142 261.575 459.583C261.137 460.024 260.79 460.547 260.553 461.124C260.316 461.7 260.193 462.318 260.193 462.942V462.942ZM298.253 511.283C298.279 508.51 299.387 505.859 301.337 503.906C303.286 501.954 305.92 500.859 308.664 500.859C311.409 500.859 314.042 501.954 315.992 503.906C317.942 505.859 319.05 508.51 319.075 511.283V527.607C319.061 530.388 317.958 533.051 316.007 535.012C314.056 536.974 311.416 538.075 308.664 538.075C305.912 538.075 303.272 536.974 301.321 535.012C299.37 533.051 298.267 530.388 298.253 527.607V511.283Z" fill="#2F2E41"/>
<path id="Vector_72" d="M259.894 599.131V612.697C259.896 613.4 260.173 614.074 260.663 614.572C261.154 615.07 261.819 615.353 262.514 615.359H355.398C356.094 615.355 356.761 615.073 357.252 614.575C357.743 614.076 358.018 613.401 358.018 612.697V599.131H259.894Z" fill="#3F3D56"/>
<path id="Vector_73" d="M106.77 250.978V507.854C106.773 511.127 108.06 514.266 110.351 516.581C112.641 518.896 115.747 520.197 118.986 520.2H495.654C498.894 520.197 501.999 518.896 504.29 516.581C506.58 514.266 507.868 511.127 507.871 507.854V250.978C507.863 247.708 506.573 244.573 504.283 242.262C501.994 239.951 498.891 238.65 495.654 238.646H118.986C115.75 238.65 112.647 239.951 110.357 242.262C108.068 244.573 106.778 247.708 106.77 250.978Z" fill="#3F3D56"/>
<path id="Vector_74" d="M115.606 254.174V504.685C115.609 506.434 116.298 508.111 117.522 509.347C118.746 510.584 120.405 511.28 122.135 511.283H492.519C494.25 511.28 495.908 510.584 497.132 509.347C498.356 508.111 499.045 506.434 499.048 504.685V254.174C499.048 252.423 498.36 250.744 497.136 249.504C495.912 248.265 494.252 247.566 492.519 247.562H122.135C120.403 247.566 118.742 248.265 117.518 249.504C116.294 250.744 115.607 252.423 115.606 254.174Z" fill="white"/>
<path id="Vector_75" d="M184.343 614.44C184.72 614.917 185.199 615.303 185.745 615.566C186.29 615.83 186.888 615.965 187.492 615.962H407.847C408.449 615.962 409.044 615.825 409.588 615.563C410.132 615.3 410.611 614.919 410.991 614.446C411.37 613.973 411.641 613.42 411.783 612.828C411.924 612.237 411.934 611.62 411.81 611.024L408.39 594.604C408.248 593.934 407.943 593.311 407.502 592.791C407.061 592.272 406.498 591.871 405.865 591.627C405.407 591.446 404.918 591.353 404.426 591.353H190.899C190.407 591.353 189.919 591.446 189.461 591.627C188.827 591.871 188.265 592.271 187.824 592.791C187.383 593.311 187.078 593.934 186.936 594.604L183.515 611.024C183.394 611.62 183.405 612.235 183.548 612.826C183.691 613.417 183.963 613.968 184.343 614.44Z" fill="#2F2E41"/>
<path id="Vector_76" d="M480.499 282.072H133.932C133.572 282.063 133.229 281.913 132.977 281.653C132.726 281.393 132.584 281.043 132.584 280.679C132.584 280.315 132.726 279.965 132.977 279.705C133.229 279.444 133.572 279.294 133.932 279.286H480.499C480.859 279.294 481.202 279.444 481.454 279.705C481.706 279.965 481.847 280.315 481.847 280.679C481.847 281.043 481.706 281.393 481.454 281.653C481.202 281.913 480.859 282.063 480.499 282.072V282.072Z" fill="#3F3D56"/>
<path id="Vector_77" d="M157.524 272.175C161.984 272.175 165.601 268.439 165.601 263.83C165.601 259.222 161.984 255.486 157.524 255.486C153.063 255.486 149.447 259.222 149.447 263.83C149.447 268.439 153.063 272.175 157.524 272.175Z" fill="#3F3D56"/>
<path id="Vector_78" d="M185.426 272.175C189.887 272.175 193.503 268.439 193.503 263.83C193.503 259.222 189.887 255.486 185.426 255.486C180.965 255.486 177.349 259.222 177.349 263.83C177.349 268.439 180.965 272.175 185.426 272.175Z" fill="#3F3D56"/>
<path id="Vector_79" d="M213.328 272.175C217.788 272.175 221.404 268.439 221.404 263.83C221.404 259.222 217.788 255.486 213.328 255.486C208.867 255.486 205.251 259.222 205.251 263.83C205.251 268.439 208.867 272.175 213.328 272.175Z" fill="#3F3D56"/>
<path id="Vector_80" d="M463.697 257.549H443.88C443.488 257.558 443.115 257.722 442.841 258.005C442.568 258.289 442.414 258.669 442.414 259.065C442.414 259.461 442.568 259.841 442.841 260.124C443.115 260.408 443.488 260.571 443.88 260.581H463.697C464.091 260.575 464.467 260.413 464.744 260.129C465.021 259.846 465.176 259.463 465.176 259.065C465.176 258.666 465.021 258.284 464.744 258.001C464.467 257.717 464.091 257.555 463.697 257.549Z" fill="#3F3D56"/>
<path id="Vector_81" d="M463.697 263.242H443.88C443.488 263.251 443.115 263.414 442.84 263.697C442.566 263.981 442.413 264.361 442.413 264.758C442.413 265.154 442.566 265.534 442.84 265.818C443.115 266.101 443.488 266.265 443.88 266.273H463.697C464.092 266.269 464.469 266.107 464.746 265.823C465.024 265.539 465.179 265.157 465.179 264.758C465.179 264.359 465.024 263.976 464.746 263.692C464.469 263.408 464.092 263.247 463.697 263.242V263.242Z" fill="#3F3D56"/>
<path id="Vector_82" d="M463.697 268.935H443.88C443.488 268.944 443.115 269.108 442.841 269.391C442.568 269.674 442.414 270.054 442.414 270.45C442.414 270.846 442.568 271.227 442.841 271.51C443.115 271.793 443.488 271.957 443.88 271.966H463.697C464.091 271.961 464.467 271.798 464.744 271.515C465.021 271.231 465.176 270.849 465.176 270.45C465.176 270.052 465.021 269.67 464.744 269.386C464.467 269.102 464.091 268.94 463.697 268.935V268.935Z" fill="#3F3D56"/>
<path id="Vector_83" d="M941.461 605.085C942.059 606.845 943.193 608.367 944.701 609.435C946.209 610.502 948.013 611.059 949.854 611.026L985.813 610.091C987.667 610.054 989.46 609.412 990.923 608.261C992.386 607.109 993.441 605.51 993.931 603.703L999.019 548.712C1000.82 549.539 1002.79 549.947 1004.77 549.907C1006.49 549.863 1008.19 549.477 1009.76 548.771C1011.34 548.065 1012.76 547.053 1013.95 545.791C1015.13 544.53 1016.06 543.045 1016.68 541.421C1017.3 539.797 1017.6 538.065 1017.55 536.326C1017.51 534.586 1017.13 532.871 1016.43 531.281C1015.73 529.69 1014.73 528.254 1013.48 527.055C1012.23 525.855 1010.76 524.916 1009.16 524.291C1007.55 523.665 1005.84 523.366 1004.11 523.409C1003.32 523.407 1002.53 523.49 1001.76 523.657C1000.91 522.736 999.891 522.003 998.751 521.507C997.612 521.01 996.382 520.76 995.141 520.772L939.828 522.216C939.369 522.233 938.913 522.29 938.464 522.387C937.251 522.615 936.1 523.104 935.09 523.819C934.079 524.535 933.232 525.461 932.605 526.535C931.978 527.609 931.587 528.807 931.456 530.047C931.326 531.287 931.46 532.541 931.849 533.724L941.461 605.085ZM1000.06 544.979L1003.68 531.875C1004.1 530.361 1004.11 528.764 1003.71 527.246C1003.89 527.245 1004.04 527.161 1004.22 527.161C1006.7 527.109 1009.1 528.054 1010.9 529.789C1012.69 531.524 1013.73 533.907 1013.79 536.416C1013.85 538.925 1012.92 541.355 1011.21 543.173C1009.49 544.991 1007.14 546.049 1004.66 546.114C1003.05 546.165 1001.46 545.772 1000.06 544.979Z" fill="#2F2E41"/>
<path id="Vector_84" d="M938.464 522.387C939.642 529.196 952.891 533.983 968.822 533.151C983.472 532.469 995.45 527.271 997.645 521.109C996.833 520.867 995.988 520.753 995.141 520.772L939.828 522.216C939.369 522.233 938.913 522.29 938.464 522.387V522.387Z" fill="#3F3D56"/>
<path id="Vector_85" d="M971.742 574.867C971.815 574.849 971.884 574.818 971.947 574.776L979.756 569.611C979.85 569.548 979.928 569.463 979.982 569.363C980.035 569.263 980.063 569.151 980.063 569.037C980.063 568.923 980.035 568.811 979.982 568.711C979.928 568.611 979.851 568.526 979.756 568.464L971.64 563.091C971.565 563.041 971.482 563.007 971.394 562.99C971.306 562.972 971.216 562.973 971.128 562.991C971.041 563.009 970.958 563.045 970.884 563.096C970.81 563.146 970.747 563.211 970.698 563.287C970.649 563.362 970.615 563.447 970.599 563.535C970.582 563.624 970.583 563.715 970.601 563.804C970.62 563.892 970.655 563.976 970.706 564.05C970.756 564.125 970.821 564.188 970.896 564.238L978.145 569.036L971.204 573.629C971.069 573.718 970.971 573.852 970.925 574.007C970.879 574.163 970.889 574.33 970.954 574.478C971.018 574.627 971.133 574.748 971.277 574.819C971.422 574.89 971.586 574.907 971.742 574.867H971.742Z" fill="#FF4D5A"/>
<path id="Vector_86" d="M959.408 575.442C959.539 575.409 959.657 575.336 959.747 575.235C959.837 575.133 959.895 575.006 959.914 574.871C959.932 574.735 959.91 574.598 959.85 574.475C959.791 574.352 959.696 574.25 959.579 574.182L952.381 570.012L959.338 564.789C959.41 564.736 959.47 564.668 959.516 564.591C959.561 564.514 959.592 564.428 959.605 564.339C959.617 564.25 959.613 564.159 959.591 564.072C959.57 563.985 959.531 563.903 959.478 563.83C959.425 563.758 959.358 563.697 959.282 563.651C959.205 563.605 959.121 563.574 959.032 563.561C958.944 563.548 958.855 563.552 958.768 563.574C958.682 563.596 958.601 563.635 958.529 563.689L950.74 569.536C950.649 569.604 950.577 569.694 950.529 569.797C950.481 569.9 950.46 570.013 950.467 570.127C950.473 570.241 950.508 570.351 950.567 570.448C950.626 570.544 950.709 570.625 950.806 570.681L958.903 575.372C959.056 575.461 959.237 575.486 959.408 575.442V575.442Z" fill="#FF4D5A"/>
<path id="Vector_87" d="M970.965 579.394C971.031 579.378 971.094 579.351 971.151 579.315C971.227 579.268 971.294 579.207 971.346 579.134C971.399 579.061 971.437 578.979 971.458 578.891C971.479 578.804 971.483 578.713 971.47 578.624C971.456 578.535 971.425 578.449 971.379 578.372L960.309 559.979C960.215 559.824 960.064 559.713 959.889 559.67C959.714 559.628 959.53 559.657 959.376 559.751C959.222 559.846 959.112 559.998 959.07 560.175C959.027 560.351 959.056 560.538 959.149 560.693L970.219 579.086C970.294 579.212 970.408 579.309 970.542 579.364C970.676 579.42 970.825 579.43 970.965 579.394Z" fill="#FF4D5A"/>
<g id="monitor-big">
<path id="Vector_88" d="M348.624 357.792H288.641C286.194 357.792 284.211 359.797 284.211 362.27V368.192C284.211 370.665 286.194 372.67 288.641 372.67H348.624C351.071 372.67 353.055 370.665 353.055 368.192V362.27C353.055 359.797 351.071 357.792 348.624 357.792Z" fill="#FF4D5A"/>
<path id="Vector_89" d="M383.588 387.547H253.678C251.231 387.547 249.247 389.552 249.247 392.025V397.947C249.247 400.42 251.231 402.425 253.678 402.425H383.588C386.035 402.425 388.019 400.42 388.019 397.947V392.025C388.019 389.552 386.035 387.547 383.588 387.547Z" fill="#E6E6E6"/>
<path id="Vector_90" d="M383.588 417.303H253.678C251.231 417.303 249.247 419.308 249.247 421.781V427.703C249.247 430.176 251.231 432.181 253.678 432.181H383.588C386.035 432.181 388.019 430.176 388.019 427.703V421.781C388.019 419.308 386.035 417.303 383.588 417.303Z" fill="#E6E6E6"/>
</g>
<path id="Vector_91" d="M394.601 516.942L394.895 517.881L394.91 517.912L403.767 545.125L413.956 576.485L433.126 635.417L433.311 644.572V644.603L434.736 718.245L430.787 728.229L435.231 744.597C435.231 744.597 433.188 719.855 422.225 734.064C416.015 742.139 408.753 750.401 402.792 758.147C411.479 761.699 420.305 764.913 429.27 767.787C431.206 768.413 433.157 769.007 435.108 769.602C435.526 769.727 435.944 769.852 436.362 769.977C466.081 778.859 496.805 783.85 527.781 784.828C529.392 784.875 530.971 784.906 532.504 784.937C533.046 784.953 533.573 784.969 534.099 784.969C535.833 784.984 537.552 785 539.286 785C542.786 785 546.27 784.948 549.738 784.844C575.41 784.112 600.933 780.624 625.875 774.437C625.704 764.031 625.24 751.872 624.574 738.884C624.264 732.515 617.312 725.614 616.894 718.947C616.6 713.94 622.84 709.23 622.515 704.144C620.409 672.831 617.776 684.851 615.825 662.677C615.624 660.502 615.438 658.421 615.268 656.433C614.014 642.193 613.147 633.289 613.147 633.289L621.477 580.225L634.561 496.912L633.555 495.237L632.425 494.674L563.411 460.153L559.664 450.451C558.572 447.656 556.678 445.255 554.224 443.556C551.771 441.858 548.872 440.94 545.898 440.921L500.436 440.733C498.077 440.723 495.749 441.281 493.646 442.361C491.542 443.441 489.725 445.013 488.343 446.946L476.033 464.175L394.601 516.942Z" fill="#3F3D56"/>
<path id="Vector_92" d="M443.609 622.304L433.311 644.572L426.282 659.782L414.188 723.769L408.134 730.263L402.947 707.273L348.655 719.456C346.874 709.457 348.179 719.794 347.079 708.825C347.389 708.512 347.714 708.199 348.039 707.886C348.906 707.072 349.634 706.305 349.619 705.57C348.999 667.732 350.857 603.338 366.373 564.326C368.803 557.956 372.007 551.916 375.911 546.346C376.221 545.923 376.515 545.5 376.809 545.078C383.963 534.953 388.484 524.985 394.895 517.896V517.881C394.935 517.848 394.971 517.812 395.003 517.771C395.026 517.76 395.047 517.744 395.065 517.724L439.103 494.126L440.992 547.77L442.339 586.328L443.609 622.304Z" fill="#3F3D56"/>
<path id="Vector_93" d="M602.399 628.628L615.262 656.441L619.751 666.127L631.841 730.108L637.875 736.586L643.075 713.602L645.518 713.096L689.576 703.874L702.417 745.09C705.311 740.217 706.452 734.483 705.645 728.857C704.838 723.232 702.134 718.061 697.99 714.218C697.113 713.416 696.383 712.635 696.403 711.897C697.134 667.393 694.441 586.129 670.115 552.682C662.389 542.068 657.754 531.496 651.009 524.11C650.988 524.089 650.988 524.068 650.968 524.068L634.555 496.91L633.553 495.243L632.426 494.673L602.399 628.628Z" fill="#3F3D56"/>
<path id="Ellipse 5" d="M524.48 427.658C557.883 427.658 584.962 400.292 584.962 366.535C584.962 332.777 557.883 305.412 524.48 305.412C491.077 305.412 463.999 332.777 463.999 366.535C463.999 400.292 491.077 427.658 524.48 427.658Z" fill="#FFB6B6"/>
<path id="Head" d="M606.228 323.841C605.76 323.334 605.194 322.929 604.567 322.648C603.94 322.368 603.263 322.218 602.577 322.208L603.486 319.657C603.783 318.853 603.863 317.984 603.719 317.139C603.574 316.294 603.209 315.502 602.662 314.846C602.115 314.19 601.406 313.693 600.606 313.405C599.806 313.118 598.945 313.05 598.111 313.209L594.799 313.854L595.111 311.618C595.231 310.785 595.134 309.936 594.83 309.152C594.527 308.369 594.026 307.679 593.378 307.15C592.731 306.621 591.958 306.272 591.136 306.137C590.314 306.001 589.472 306.084 588.691 306.378C587.981 306.66 587.218 306.779 586.457 306.724C585.696 306.669 584.957 306.443 584.293 306.063C583.627 305.693 583.049 305.182 582.599 304.563C582.149 303.945 581.838 303.235 581.687 302.482L580.533 296.858L580.411 296.556C574.792 287.091 563.987 280.205 550.766 277.681C538.998 275.417 526.931 276.57 515.299 277.653C510.684 278.092 505.471 278.586 501.128 281.275C497.436 283.579 494.314 288.188 494.952 292.839C483.482 289.286 471.184 296.378 465.09 305.322C457.869 315.967 456.688 329.3 456.498 339.725C455.982 364.39 461.018 384.568 471.429 399.713C472.189 400.81 472.379 403.101 473.885 403.869L473.573 403.361C475.256 404.212 476.967 405.584 476.329 407.051C474.496 411.276 486.672 420.618 495.25 423.705C510.901 429.343 531.709 428.862 546.341 426.832L546.857 423.334C552.137 422.607 555.857 421.222 556.902 419.054C558.748 417.463 560.322 416.036 561.693 414.72L561.707 414.706C561.734 414.678 561.788 414.637 561.815 414.61C568.426 408.204 569.96 404.555 570.652 398.999C571.317 393.553 570.136 388.025 568.928 383.046C594.365 387.024 558.911 355.665 582.61 349.602C582.882 349.518 583.158 349.449 583.438 349.396C584.13 349.232 584.823 349.067 585.488 348.875C588.694 347.996 591.764 346.671 594.609 344.938C601.233 340.864 603.419 335.459 606.839 329.369C607.333 328.502 607.54 327.498 607.43 326.504C607.32 325.509 606.899 324.576 606.228 323.841V323.841Z" fill="#2F2E41"/>
<path id="Vector_94" d="M738.395 632.98C738.381 635.381 738.354 638.742 738.246 642.898C738.232 643.474 738.218 644.064 738.205 644.668C738.028 652.308 737.852 658.714 737.567 665.834C737.553 666.328 737.54 666.808 737.512 667.302C737.132 677.233 736.535 688.797 735.504 707.11C733.59 740.938 730.251 711.76 726.898 723.626C726.735 724.216 726.559 724.916 726.396 725.739C725.888 728.725 725.031 731.64 723.844 734.422C722.066 735.492 720.233 736.521 718.428 737.55C713.284 740.444 708.058 743.229 702.791 745.876C699.832 747.358 696.86 748.812 693.873 750.211C693.398 750.43 692.937 750.65 692.475 750.856C677.183 758.004 661.424 764.081 645.307 769.045C642.158 770.005 639.022 770.938 635.846 771.802C632.534 772.735 629.222 773.613 625.869 774.436C600.928 780.624 575.407 784.114 549.735 784.848C546.274 784.958 542.785 784.999 539.283 784.999C537.546 784.999 535.836 784.985 534.098 784.971C533.569 784.971 533.039 784.958 532.51 784.944C530.976 784.903 529.388 784.875 527.786 784.834C496.81 783.858 466.086 778.865 436.368 769.978L435.106 769.608C433.151 769.004 431.21 768.414 429.269 767.783C420.31 764.916 411.483 761.706 402.787 758.153C396.149 755.451 389.589 752.552 383.105 749.456C383.046 749.44 382.991 749.412 382.942 749.374C381.585 748.743 380.214 748.085 378.857 747.413C378.68 747.316 378.49 747.22 378.3 747.124C373.237 744.628 368.228 742.012 363.274 739.278C359.107 729.607 353.243 727.755 349.605 719.25C348.547 716.724 347.782 714.081 347.325 711.376C347.325 711.349 347.312 711.321 347.312 711.28C347.692 716.383 345.696 702.227 347.298 711.225C347.284 711.061 347.271 710.882 347.257 710.677C347.217 710.183 347.162 709.579 347.081 708.825C342.425 662.885 342.724 610.346 340.701 567.054C340.565 564.255 340.425 561.576 340.28 559.015C340.24 558.165 340.185 557.328 340.131 556.505C340.226 556.258 340.335 555.997 340.457 555.75C340.483 555.679 340.515 555.61 340.552 555.545C340.592 555.459 340.637 555.377 340.688 555.298C340.715 555.256 340.756 555.202 340.783 555.16C340.802 555.113 340.825 555.068 340.851 555.023C340.973 554.831 341.108 554.625 341.258 554.433C341.326 554.351 341.38 554.282 341.448 554.214C341.495 554.144 341.549 554.079 341.611 554.022C341.652 553.956 341.703 553.896 341.76 553.844C341.814 553.789 341.869 553.72 341.936 553.652C341.965 553.608 342.002 553.571 342.045 553.542C342.152 553.417 342.27 553.302 342.398 553.199C342.882 552.749 343.399 552.336 343.945 551.964C344.135 551.841 344.339 551.717 344.529 551.58C345.897 550.753 347.337 550.055 348.832 549.495C349.348 549.303 349.863 549.125 350.42 548.933C350.623 548.878 350.814 548.809 351.017 548.741C351.316 548.645 351.614 548.549 351.927 548.48C353.474 548.014 355.144 547.616 356.949 547.245C357.166 547.204 357.397 547.163 357.627 547.108C357.953 547.04 358.293 546.985 358.632 546.93C359.093 546.848 359.569 546.765 360.044 546.683C364.075 546.038 368.649 545.558 373.699 545.243C374.174 545.215 374.649 545.188 375.124 545.16C375.68 545.133 376.237 545.105 376.807 545.078C377.282 545.051 377.771 545.037 378.259 545.023C378.734 544.996 379.223 544.982 379.725 544.968C381.096 544.927 382.508 544.886 383.947 544.859C388.046 544.776 392.362 544.804 396.896 544.9C399 544.955 401.145 545.009 403.343 545.105C403.493 545.105 403.629 545.119 403.764 545.119C405.678 545.188 407.606 545.27 409.587 545.38C410.972 545.448 412.37 545.517 413.768 545.599C415.085 545.682 416.415 545.764 417.759 545.86C418.804 545.915 419.849 545.997 420.908 546.066C421.804 546.134 422.699 546.203 423.595 546.258L424.817 546.34C425.482 546.395 426.147 546.436 426.826 546.505C428.319 546.628 429.812 546.752 431.332 546.875C432.839 547.012 434.373 547.149 435.907 547.287C437.44 547.424 438.988 547.575 440.535 547.726C440.698 547.739 440.847 547.753 440.997 547.767C442.408 547.918 443.82 548.055 445.245 548.206C445.571 548.233 445.91 548.261 446.236 548.302C447.595 548.44 448.98 548.601 450.352 548.748C450.772 548.794 451.191 548.839 451.613 548.885C452.687 549.004 453.746 549.106 454.828 549.234C456.253 549.399 457.706 549.55 459.117 549.742C460.217 549.865 461.316 549.989 462.416 550.126C464.14 550.332 465.891 550.551 467.642 550.785C468.307 550.867 468.972 550.949 469.637 551.045C474.632 551.676 479.681 552.376 484.812 553.103C492.59 554.214 500.49 555.421 508.444 556.724C516.412 558.027 524.425 559.404 532.483 560.853C534.519 561.224 536.555 561.594 538.605 561.978C539.528 562.156 540.45 562.335 541.373 562.513C542.948 562.801 544.523 563.103 546.097 563.405C547.672 563.706 549.246 564.008 550.821 564.324C552.694 564.694 554.581 565.064 556.454 565.435C568.792 567.904 581.063 570.538 593.035 573.295C595.003 573.748 596.971 574.214 598.926 574.667C602.835 575.586 606.708 576.519 610.545 577.465C611.603 577.712 612.649 577.973 613.694 578.233C616.3 578.892 618.906 579.55 621.471 580.222L621.919 580.346C623.806 580.812 625.652 581.292 627.498 581.786C631.855 582.939 636.14 584.105 640.352 585.284C643.149 586.066 645.913 586.857 648.646 587.657C652.732 588.851 656.736 590.058 660.631 591.279C661.595 591.581 662.559 591.882 663.509 592.17C666.359 593.062 669.169 593.967 671.897 594.873C674.069 595.586 676.187 596.313 678.277 597.04C680.367 597.767 682.417 598.494 684.426 599.221C685.715 599.688 686.991 600.182 688.267 600.648C690.1 601.334 691.905 602.02 693.67 602.706C694.213 602.911 694.742 603.131 695.271 603.337C695.611 603.487 695.936 603.611 696.262 603.748C696.9 604.009 697.552 604.256 698.176 604.516C698.814 604.763 699.438 605.024 700.063 605.298C700.674 605.545 701.298 605.806 701.895 606.066C702.506 606.313 703.103 606.574 703.701 606.848C704.203 607.054 704.691 607.274 705.166 607.493C706.13 607.918 707.094 608.344 708.031 608.782C708.492 609.002 708.953 609.208 709.415 609.427L710.474 609.921C710.623 610.003 710.772 610.072 710.922 610.141C711.261 610.305 711.614 610.483 711.953 610.648C712.74 611.018 713.514 611.416 714.274 611.787C715.292 612.308 716.283 612.829 717.233 613.337C718.197 613.858 719.134 614.379 720.03 614.887C720.179 614.969 720.315 615.051 720.464 615.134C720.668 615.243 720.871 615.367 721.075 615.477C721.767 615.874 722.432 616.286 723.097 616.684C724.4 617.493 725.635 618.289 726.789 619.084C727.047 619.263 727.291 619.441 727.549 619.606C728.404 620.223 729.219 620.826 729.979 621.444C729.979 621.457 729.979 621.457 729.993 621.457C730.251 621.649 730.495 621.855 730.739 622.047C730.943 622.239 731.16 622.404 731.364 622.596C732.069 623.213 732.721 623.803 733.318 624.407C733.518 624.593 733.709 624.79 733.888 624.997C733.967 625.063 734.04 625.136 734.105 625.216C734.377 625.49 734.621 625.765 734.852 626.039C734.888 626.077 734.92 626.118 734.947 626.163C735.273 626.547 735.571 626.931 735.856 627.315C735.992 627.507 736.141 627.699 736.264 627.891C736.427 628.124 736.589 628.371 736.725 628.604C736.847 628.796 736.956 629.002 737.064 629.194C737.353 629.689 737.598 630.207 737.797 630.744C737.95 631.108 738.073 631.485 738.164 631.869C738.267 632.233 738.344 632.605 738.395 632.98Z" fill="#AFAEBA"/>
<path id="Vector_95" opacity="0.2" d="M738.395 632.98C738.381 635.381 738.354 638.742 738.246 642.898C738.232 643.474 738.205 644.064 738.191 644.668C738.055 650.498 737.852 657.699 737.567 665.834C737.553 666.328 737.54 666.808 737.512 667.302C737.132 677.233 736.535 688.797 735.504 707.11C733.59 740.938 730.251 711.76 726.898 723.626C717.586 717.837 707.379 711.774 696.466 705.546C694.498 704.422 692.511 703.292 690.507 702.158C668.681 689.853 644.302 676.959 618.852 664.188C617.847 663.68 616.829 663.173 615.825 662.679C557.526 633.556 493.893 605.23 442.34 586.327C432.391 582.678 422.889 579.386 413.958 576.491C395.145 570.414 378.884 566.162 366.369 564.324C353.338 562.403 344.339 563.089 340.701 567.053C340.565 564.255 340.425 561.576 340.28 559.015C340.226 558.164 340.172 557.328 340.117 556.505C340.201 556.279 340.31 556.063 340.415 555.846C340.431 555.814 340.441 555.781 340.457 555.75C340.483 555.679 340.515 555.61 340.552 555.544C340.592 555.459 340.637 555.377 340.688 555.297C340.732 555.2 340.786 555.108 340.85 555.023C340.973 554.831 341.108 554.625 341.258 554.433C341.367 554.289 341.485 554.152 341.611 554.022C341.652 553.956 341.702 553.896 341.76 553.843C341.814 553.788 341.868 553.72 341.936 553.651C341.965 553.608 342.002 553.571 342.045 553.542C342.152 553.417 342.27 553.302 342.398 553.199C342.882 552.748 343.399 552.336 343.945 551.964C344.135 551.841 344.339 551.717 344.529 551.58C345.897 550.753 347.337 550.055 348.832 549.495C349.348 549.303 349.863 549.125 350.42 548.933C350.623 548.878 350.813 548.809 351.017 548.741C351.316 548.645 351.614 548.548 351.927 548.48C353.474 548.013 355.143 547.616 356.949 547.245C357.492 547.136 358.062 547.026 358.632 546.93C359.093 546.847 359.568 546.765 360.044 546.683C364.075 546.038 368.649 545.558 373.699 545.242C374.174 545.215 374.649 545.188 375.124 545.16C375.68 545.133 376.237 545.105 376.807 545.078C377.282 545.05 377.771 545.037 378.259 545.023C378.734 544.996 379.223 544.982 379.725 544.968C381.096 544.927 382.508 544.886 383.947 544.858C388.046 544.79 392.362 544.817 396.896 544.913C399 544.954 401.144 545.023 403.343 545.119C403.479 545.119 403.628 545.133 403.764 545.133C405.678 545.188 407.619 545.284 409.587 545.38C410.972 545.448 412.37 545.517 413.768 545.599C415.085 545.681 416.415 545.764 417.759 545.86C418.804 545.915 419.849 545.997 420.908 546.066C421.803 546.134 422.699 546.203 423.595 546.258C424.668 546.34 425.74 546.422 426.826 546.505C428.319 546.628 429.812 546.751 431.332 546.875C432.839 547.012 434.373 547.149 435.906 547.286C437.44 547.424 438.988 547.574 440.535 547.725C440.698 547.739 440.847 547.753 440.997 547.767C442.408 547.918 443.82 548.055 445.245 548.206C453.145 549.015 461.276 549.961 469.637 551.045C474.632 551.69 479.69 552.38 484.812 553.116C492.59 554.227 500.49 555.435 508.444 556.724C516.412 558.027 524.425 559.404 532.483 560.853C534.519 561.223 536.555 561.594 538.605 561.978C541.102 562.444 543.6 562.92 546.097 563.405C547.672 563.706 549.246 564.008 550.821 564.324C552.694 564.694 554.581 565.064 556.454 565.435C568.792 567.904 581.063 570.538 593.035 573.295C595.003 573.748 596.971 574.214 598.926 574.667C602.835 575.586 606.708 576.519 610.545 577.465C611.603 577.726 612.649 577.986 613.694 578.247C616.314 578.905 618.906 579.564 621.471 580.222V580.236C621.621 580.264 621.77 580.305 621.919 580.346C623.793 580.826 625.652 581.306 627.498 581.8C631.855 582.952 636.14 584.114 640.352 585.284C643.149 586.08 645.918 586.862 648.646 587.657C652.732 588.864 656.736 590.072 660.631 591.279C661.595 591.581 662.559 591.882 663.509 592.17C666.359 593.076 669.156 593.977 671.898 594.873C674.069 595.586 676.187 596.313 678.277 597.04C680.367 597.767 682.417 598.494 684.426 599.221C685.729 599.688 687.005 600.168 688.267 600.634C690.113 601.32 691.905 602.006 693.67 602.705C694.213 602.911 694.742 603.131 695.271 603.337C696.262 603.721 697.226 604.118 698.176 604.516C698.814 604.763 699.438 605.024 700.063 605.298C700.674 605.545 701.298 605.806 701.895 606.066C702.506 606.313 703.103 606.574 703.701 606.848C704.203 607.054 704.691 607.273 705.166 607.493C706.13 607.918 707.094 608.343 708.031 608.782C708.492 609.002 708.954 609.208 709.415 609.427L710.474 609.921C710.623 610.003 710.772 610.072 710.922 610.14C712.075 610.689 713.188 611.238 714.274 611.787C715.292 612.308 716.283 612.829 717.233 613.337C718.36 613.94 719.432 614.53 720.464 615.134C720.668 615.243 720.871 615.367 721.075 615.477C721.767 615.874 722.432 616.286 723.097 616.684C724.4 617.493 725.636 618.289 726.789 619.084C727.929 619.88 728.988 620.662 729.979 621.444C729.979 621.457 729.979 621.457 729.993 621.457C730.468 621.841 730.929 622.226 731.364 622.596C732.069 623.213 732.721 623.803 733.318 624.407C733.518 624.593 733.709 624.79 733.888 624.997C733.967 625.063 734.04 625.136 734.105 625.216C734.391 625.532 734.676 625.847 734.947 626.163C735.273 626.547 735.571 626.931 735.857 627.315C735.992 627.507 736.142 627.699 736.264 627.891C736.427 628.124 736.59 628.371 736.725 628.604C736.847 628.796 736.956 629.002 737.065 629.194C737.353 629.689 737.598 630.207 737.798 630.744C737.946 631.11 738.069 631.486 738.164 631.869C738.267 632.233 738.344 632.605 738.395 632.98V632.98Z" fill="black"/>
<g id="logo">
<g id="react 1" clip-path="url(#clip0_107_2)">
<path id="Vector_96" d="M307.289 165.397C307.289 173.333 314.471 180.742 325.795 184.918C323.534 197.201 325.39 207.101 331.589 210.959C337.961 214.924 347.454 212.179 356.464 203.681C365.247 211.836 374.124 215.045 380.317 211.177C386.683 207.2 388.619 196.629 386.296 183.963C398.09 179.755 404.687 173.438 404.687 165.397C404.687 157.644 397.492 150.938 386.321 146.788C388.822 133.598 386.702 123.939 380.247 119.922C374.022 116.049 365.043 119.425 356.131 127.793C346.859 118.911 337.968 116.199 331.519 120.227C325.301 124.111 323.526 134.191 325.795 146.701C314.853 150.817 307.289 157.675 307.289 165.397Z" fill="white"/>
<path id="Vector_97" d="M383.955 150.909C383.057 150.576 382.128 150.26 381.17 149.962C381.328 149.269 381.472 148.585 381.6 147.913C383.708 136.873 382.33 127.98 377.624 125.052C373.112 122.244 365.732 125.171 358.279 132.17C357.562 132.843 356.843 133.556 356.125 134.302C355.646 133.808 355.168 133.331 354.691 132.874C346.88 125.391 339.051 122.237 334.349 125.174C329.841 127.99 328.506 136.35 330.403 146.813C330.587 147.823 330.801 148.855 331.043 149.904C329.935 150.244 328.865 150.606 327.842 150.991C318.684 154.436 312.835 159.835 312.835 165.435C312.835 171.219 319.114 177.02 328.652 180.538C329.405 180.816 330.186 181.078 330.991 181.327C330.73 182.462 330.502 183.574 330.312 184.659C328.503 194.94 329.915 203.103 334.412 205.901C339.056 208.79 346.85 205.82 354.439 198.662C355.039 198.096 355.641 197.496 356.244 196.867C357.026 197.68 357.806 198.448 358.583 199.169C365.934 205.995 373.195 208.751 377.687 205.945C382.326 203.047 383.834 194.278 381.876 183.609C381.727 182.794 381.553 181.961 381.357 181.114C381.905 180.94 382.442 180.759 382.966 180.572C392.882 177.027 399.334 171.296 399.334 165.435C399.334 159.814 393.297 154.379 383.955 150.909Z" fill="#FF4D5A"/>
<path id="Vector_98" d="M381.804 176.787C381.331 176.956 380.846 177.12 380.351 177.278C379.256 173.539 377.779 169.562 375.971 165.454C377.696 161.444 379.117 157.519 380.181 153.804C381.066 154.08 381.924 154.371 382.752 154.679C390.756 157.652 395.639 162.048 395.639 165.435C395.639 169.043 390.366 173.726 381.804 176.787ZM378.251 184.383C379.117 189.101 379.241 193.366 378.667 196.701C378.152 199.697 377.116 201.695 375.835 202.495C373.109 204.197 367.279 201.984 360.993 196.147C360.272 195.478 359.546 194.763 358.818 194.007C361.255 191.131 363.691 187.787 366.068 184.074C370.25 183.674 374.2 183.019 377.783 182.125C377.96 182.893 378.116 183.647 378.251 184.383ZM342.325 202.201C339.661 203.215 337.54 203.244 336.258 202.447C333.529 200.749 332.395 194.194 333.942 185.402C334.12 184.396 334.331 183.361 334.574 182.304C338.117 183.149 342.039 183.758 346.23 184.124C348.624 187.758 351.13 191.098 353.656 194.023C353.104 194.597 352.554 195.145 352.008 195.66C348.652 198.825 345.289 201.071 342.325 202.201ZM329.847 176.765C325.63 175.21 322.146 173.188 319.759 170.982C317.613 169 316.53 167.032 316.53 165.435C316.53 162.036 321.226 157.702 329.058 154.756C330.008 154.398 331.003 154.061 332.035 153.745C333.118 157.544 334.538 161.516 336.251 165.532C334.515 169.608 333.075 173.643 331.982 177.487C331.246 177.258 330.533 177.018 329.847 176.765ZM334.03 146.047C332.404 137.083 333.484 130.321 336.201 128.624C339.094 126.817 345.493 129.394 352.238 135.856C352.669 136.269 353.102 136.701 353.536 137.148C351.023 140.06 348.539 143.375 346.167 146.987C342.099 147.394 338.205 148.047 334.624 148.922C334.399 147.945 334.2 146.985 334.03 146.047ZM371.342 155.988C370.486 154.393 369.607 152.835 368.711 151.32C371.471 151.697 374.115 152.197 376.598 152.808C375.853 155.386 374.924 158.081 373.83 160.845C373.045 159.237 372.216 157.617 371.342 155.988ZM356.126 139.997C357.83 141.99 359.537 144.214 361.216 146.628C359.524 146.541 357.812 146.497 356.085 146.497C354.374 146.497 352.674 146.54 350.993 146.625C352.673 144.234 354.395 142.013 356.126 139.997ZM340.813 156.015C339.958 157.615 339.143 159.227 338.371 160.842C337.295 158.088 336.374 155.38 335.622 152.766C338.09 152.17 340.722 151.683 343.464 151.313C342.556 152.842 341.67 154.411 340.813 156.015V156.015ZM343.543 179.841C340.71 179.5 338.039 179.038 335.572 178.458C336.336 175.797 337.276 173.032 338.375 170.219C339.15 171.832 339.967 173.445 340.827 175.048H340.828C341.704 176.681 342.612 178.281 343.543 179.841ZM356.228 191.154C354.477 189.115 352.73 186.859 351.024 184.433C352.68 184.504 354.369 184.539 356.085 184.539C357.848 184.539 359.591 184.497 361.306 184.414C359.622 186.884 357.921 189.143 356.228 191.154ZM373.865 170.075C375.021 172.919 375.996 175.67 376.77 178.285C374.262 178.903 371.554 179.4 368.701 179.769C369.599 178.234 370.485 176.65 371.356 175.02C372.238 173.372 373.074 171.721 373.865 170.075ZM368.156 173.029C366.803 175.558 365.415 177.973 364.006 180.252C361.439 180.45 358.787 180.552 356.085 180.552C353.393 180.552 350.775 180.462 348.253 180.286C346.787 177.976 345.369 175.554 344.025 173.05H344.026C342.686 170.553 341.452 168.035 340.335 165.531C341.452 163.021 342.682 160.499 344.014 158.007L344.014 158.007C345.35 155.508 346.756 153.098 348.208 150.803C350.781 150.593 353.419 150.484 356.085 150.484H356.085C358.763 150.484 361.404 150.594 363.976 150.806C365.406 153.084 366.802 155.486 368.143 157.986C369.5 160.513 370.746 163.018 371.872 165.474C370.749 167.972 369.506 170.502 368.156 173.029ZM375.778 128.506C378.675 130.308 379.801 137.577 377.981 147.108C377.865 147.716 377.735 148.336 377.593 148.964C374.004 148.07 370.107 147.405 366.027 146.992C363.65 143.34 361.187 140.02 358.715 137.146C359.38 136.456 360.043 135.798 360.704 135.178C367.09 129.181 373.059 126.814 375.778 128.506Z" fill="white"/>
<path id="Vector_99" d="M356.085 157.101C360.35 157.101 363.809 160.832 363.809 165.435C363.809 170.038 360.35 173.769 356.085 173.769C351.819 173.769 348.361 170.038 348.361 165.435C348.361 160.832 351.819 157.101 356.085 157.101Z" fill="#FF4D5A"/>
</g>
<g id="material-ui-seeklogo.com 1" clip-path="url(#clip1_107_2)">
<g id="Group">
<path id="Vector_100" d="M724 132.146V99L749.125 115.573V126.621L732.375 115.573V137.67L724 132.146Z" fill="#FF4D5A"/>
<path id="Vector_101" d="M749.125 115.573L774.25 99V132.146L757.5 143.194L749.125 137.67L765.875 126.621V115.573L749.125 126.621V115.573Z" fill="#FF4D5A"/>
<path id="Vector_102" d="M749.125 137.67V148.719L765.875 159.767V148.719L749.125 137.67Z" fill="#FF4D5A"/>
<path id="Vector_103" d="M765.875 159.767L791 143.194V121.097L782.625 126.621V137.67L765.875 148.719V159.767ZM782.625 115.573V104.524L791 99V110.049L782.625 115.573Z" fill="#FF4D5A"/>
</g>
</g>
<g id="html5-without-wordmark-color 1">
<g id="Guides_to_delete">
<g id="Group_2">
<path id="Vector_104" d="M888.698 391.018L883.51 327.977H940.489L935.295 391.023L911.986 398.023L888.698 391.018Z" fill="#FF4D5A"/>
<path id="Vector_105" d="M912 333.13V392.668L930.848 387.008L935.289 333.13H912Z" fill="#FF4D5A"/>
<path id="Vector_106" d="M894.125 340.863L896.049 364.244H920.786L919.955 374.273L911.991 376.605L904.041 374.276L903.509 367.837H896.345L897.37 380.25L911.989 384.648L926.627 380.25L928.589 356.513H902.576L901.923 348.595H929.214H929.236L929.875 340.863H894.125Z" fill="white"/>
<g id="Group_3">
<path id="Vector_107" d="M912 340.863H894.125L896.049 364.244H912V356.513H902.576L901.923 348.595H912V340.863Z" fill="#EBEBEB"/>
<path id="Vector_108" d="M912 376.602L911.991 376.605L904.041 374.276L903.509 367.837H896.345L897.37 380.25L911.989 384.648L912 384.645V376.602Z" fill="#EBEBEB"/>
</g>
</g>
</g>
</g>
<g id="javascript-js-seeklogo.com 1" clip-path="url(#clip2_107_2)">
<g id="Group_4">
<path id="Vector_109" d="M651 347H727V417H651V347Z" fill="#FF4D5A"/>
<path id="Vector_110" d="M670.983 405.497L676.799 402.255C677.921 404.087 678.942 405.638 681.39 405.638C683.737 405.638 685.217 404.792 685.217 401.503V379.137H692.359V401.596C692.359 408.41 688.023 411.511 681.696 411.511C675.983 411.511 672.667 408.785 670.983 405.496" fill="white"/>
<path id="Vector_111" d="M696.238 404.792L702.053 401.691C703.584 403.994 705.574 405.685 709.094 405.685C712.053 405.685 713.94 404.322 713.94 402.443C713.94 400.187 712.002 399.388 708.737 398.073L706.952 397.368C701.799 395.348 698.38 392.81 698.38 387.454C698.38 382.52 702.462 378.761 708.839 378.761C713.379 378.761 716.644 380.217 718.991 384.024L713.43 387.313C712.206 385.292 710.879 384.494 708.839 384.494C706.747 384.494 705.421 385.715 705.421 387.313C705.421 389.286 706.747 390.085 709.808 391.307L711.593 392.012C717.664 394.408 721.082 396.851 721.082 402.349C721.082 408.27 716.032 411.512 709.247 411.512C702.615 411.512 698.329 408.598 696.238 404.792" fill="white"/>
</g>
</g>
</g>
</g>
</g>
<defs>
<clipPath id="clip0_107_2">
<rect width="98" height="95" fill="white" transform="translate(307 118)"/>
</clipPath>
<clipPath id="clip1_107_2">
<rect width="67" height="61" fill="white" transform="translate(724 99)"/>
</clipPath>
<clipPath id="clip2_107_2">
<rect width="76" height="70" fill="white" transform="translate(651 347)"/>
</clipPath>
</defs>
</svg>
